<svg xmlns="http://www.w3.org/2000/svg" xmlns:xlink="http://www.w3.org/1999/xlink" style="margin:auto;background:#664e4e;display:block;z-index:1;position:relative" width="1920" height="1080" preserveAspectRatio="xMidYMid" viewBox="0 0 1920 1080">
<defs>
  <pattern id="pid-0.012972200683235275" x="0" y="0" width="145.92000000000002" height="145.92000000000002" patternUnits="userSpaceOnUse">
    <g transform="scale(0.5700000000000001)"><g transform="translate(-139.904 139.904)">
  <line x1="162.600949922727" x2="105.77586018729528" y1="148.17255002501813" y2="204.99763976044986" stroke-width="5" stroke="#e18401" stroke-linecap="round"></line><line x1="162.600949922727" x2="105.77586018729528" y1="-363.82744997498185" y2="-307.00236023955017" stroke-width="5" stroke="#e18401" stroke-linecap="round"></line><line x1="418.600949922727" x2="361.7758601872953" y1="-363.82744997498185" y2="-307.00236023955017" stroke-width="5" stroke="#e18401" stroke-linecap="round"></line><line x1="674.6009499227271" x2="617.7758601872953" y1="-363.82744997498185" y2="-307.00236023955017" stroke-width="5" stroke="#e18401" stroke-linecap="round"></line><line x1="162.600949922727" x2="105.77586018729528" y1="-107.82744997498187" y2="-51.00236023955014" stroke-width="5" stroke="#e18401" stroke-linecap="round"></line><line x1="418.600949922727" x2="361.7758601872953" y1="-107.82744997498187" y2="-51.00236023955014" stroke-width="5" stroke="#e18401" stroke-linecap="round"></line><line x1="674.6009499227271" x2="617.7758601872953" y1="-107.82744997498187" y2="-51.00236023955014" stroke-width="5" stroke="#e18401" stroke-linecap="round"></line><line x1="162.600949922727" x2="105.77586018729528" y1="148.17255002501813" y2="204.99763976044986" stroke-width="5" stroke="#e18401" stroke-linecap="round"></line><line x1="418.600949922727" x2="361.7758601872953" y1="148.17255002501813" y2="204.99763976044986" stroke-width="5" stroke="#e18401" stroke-linecap="round"></line><line x1="674.6009499227271" x2="617.7758601872953" y1="148.17255002501813" y2="204.99763976044986" stroke-width="5" stroke="#e18401" stroke-linecap="round"></line><line x1="93.36512251086131" x2="56.732991437848796" y1="83.55772660662026" y2="120.18985767963278" stroke-width="5" stroke="#e18401" stroke-linecap="round"></line><line x1="93.36512251086131" x2="56.732991437848796" y1="-428.44227339337976" y2="-391.8101423203672" stroke-width="5" stroke="#e18401" stroke-linecap="round"></line><line x1="349.3651225108613" x2="312.7329914378488" y1="-428.44227339337976" y2="-391.8101423203672" stroke-width="5" stroke="#e18401" stroke-linecap="round"></line><line x1="605.3651225108613" x2="568.7329914378488" y1="-428.44227339337976" y2="-391.8101423203672" stroke-width="5" stroke="#e18401" stroke-linecap="round"></line><line x1="93.36512251086131" x2="56.732991437848796" y1="-172.44227339337974" y2="-135.81014232036722" stroke-width="5" stroke="#e18401" stroke-linecap="round"></line><line x1="349.3651225108613" x2="312.7329914378488" y1="-172.44227339337974" y2="-135.81014232036722" stroke-width="5" stroke="#e18401" stroke-linecap="round"></line><line x1="605.3651225108613" x2="568.7329914378488" y1="-172.44227339337974" y2="-135.81014232036722" stroke-width="5" stroke="#e18401" stroke-linecap="round"></line><line x1="93.36512251086131" x2="56.732991437848796" y1="83.55772660662026" y2="120.18985767963278" stroke-width="5" stroke="#e18401" stroke-linecap="round"></line><line x1="349.3651225108613" x2="312.7329914378488" y1="83.55772660662026" y2="120.18985767963278" stroke-width="5" stroke="#e18401" stroke-linecap="round"></line><line x1="605.3651225108613" x2="568.7329914378488" y1="83.55772660662026" y2="120.18985767963278" stroke-width="5" stroke="#e18401" stroke-linecap="round"></line><line x1="82.9376349502187" x2="41.27760521440452" y1="182.11552598328402" y2="223.7755557190982" stroke-width="5" stroke="#e18401" stroke-linecap="round"></line><line x1="82.9376349502187" x2="41.27760521440452" y1="-329.884474016716" y2="-288.2244442809018" stroke-width="5" stroke="#e18401" stroke-linecap="round"></line><line x1="338.9376349502187" x2="297.2776052144045" y1="-329.884474016716" y2="-288.2244442809018" stroke-width="5" stroke="#e18401" stroke-linecap="round"></line><line x1="594.9376349502187" x2="553.2776052144045" y1="-329.884474016716" y2="-288.2244442809018" stroke-width="5" stroke="#e18401" stroke-linecap="round"></line><line x1="82.9376349502187" x2="41.27760521440452" y1="-73.88447401671598" y2="-32.22444428090179" stroke-width="5" stroke="#e18401" stroke-linecap="round"></line><line x1="338.9376349502187" x2="297.2776052144045" y1="-73.88447401671598" y2="-32.22444428090179" stroke-width="5" stroke="#e18401" stroke-linecap="round"></line><line x1="594.9376349502187" x2="553.2776052144045" y1="-73.88447401671598" y2="-32.22444428090179" stroke-width="5" stroke="#e18401" stroke-linecap="round"></line><line x1="82.9376349502187" x2="41.27760521440452" y1="182.11552598328402" y2="223.7755557190982" stroke-width="5" stroke="#e18401" stroke-linecap="round"></line><line x1="338.9376349502187" x2="297.2776052144045" y1="182.11552598328402" y2="223.7755557190982" stroke-width="5" stroke="#e18401" stroke-linecap="round"></line><line x1="594.9376349502187" x2="553.2776052144045" y1="182.11552598328402" y2="223.7755557190982" stroke-width="5" stroke="#e18401" stroke-linecap="round"></line><line x1="125.77282250941397" x2="84.99807407394513" y1="-18.756458840020038" y2="22.018289595448785" stroke-width="5" stroke="#e18401" stroke-linecap="round"></line><line x1="125.77282250941397" x2="84.99807407394513" y1="-530.7564588400201" y2="-489.9817104045512" stroke-width="5" stroke="#e18401" stroke-linecap="round"></line><line x1="381.77282250941397" x2="340.99807407394513" y1="-530.7564588400201" y2="-489.9817104045512" stroke-width="5" stroke="#e18401" stroke-linecap="round"></line><line x1="637.772822509414" x2="596.9980740739452" y1="-530.7564588400201" y2="-489.9817104045512" stroke-width="5" stroke="#e18401" stroke-linecap="round"></line><line x1="125.77282250941397" x2="84.99807407394513" y1="-274.75645884002006" y2="-233.98171040455122" stroke-width="5" stroke="#e18401" stroke-linecap="round"></line><line x1="381.77282250941397" x2="340.99807407394513" y1="-274.75645884002006" y2="-233.98171040455122" stroke-width="5" stroke="#e18401" stroke-linecap="round"></line><line x1="637.772822509414" x2="596.9980740739452" y1="-274.75645884002006" y2="-233.98171040455122" stroke-width="5" stroke="#e18401" stroke-linecap="round"></line><line x1="125.77282250941397" x2="84.99807407394513" y1="-18.756458840020038" y2="22.018289595448785" stroke-width="5" stroke="#e18401" stroke-linecap="round"></line><line x1="381.77282250941397" x2="340.99807407394513" y1="-18.756458840020038" y2="22.018289595448785" stroke-width="5" stroke="#e18401" stroke-linecap="round"></line><line x1="637.772822509414" x2="596.9980740739452" y1="-18.756458840020038" y2="22.018289595448785" stroke-width="5" stroke="#e18401" stroke-linecap="round"></line><line x1="125.77282250941397" x2="84.99807407394513" y1="237.24354115997997" y2="278.0182895954488" stroke-width="5" stroke="#e18401" stroke-linecap="round"></line><line x1="86.70318242988493" x2="42.50957661586851" y1="33.23656488016432" y2="77.43017069418075" stroke-width="5" stroke="#e18401" stroke-linecap="round"></line><line x1="86.70318242988493" x2="42.50957661586851" y1="-478.76343511983566" y2="-434.56982930581927" stroke-width="5" stroke="#e18401" stroke-linecap="round"></line><line x1="342.7031824298849" x2="298.5095766158685" y1="-478.76343511983566" y2="-434.56982930581927" stroke-width="5" stroke="#e18401" stroke-linecap="round"></line><line x1="598.7031824298849" x2="554.5095766158685" y1="-478.76343511983566" y2="-434.56982930581927" stroke-width="5" stroke="#e18401" stroke-linecap="round"></line><line x1="86.70318242988493" x2="42.50957661586851" y1="-222.76343511983566" y2="-178.56982930581927" stroke-width="5" stroke="#e18401" stroke-linecap="round"></line><line x1="342.7031824298849" x2="298.5095766158685" y1="-222.76343511983566" y2="-178.56982930581927" stroke-width="5" stroke="#e18401" stroke-linecap="round"></line><line x1="598.7031824298849" x2="554.5095766158685" y1="-222.76343511983566" y2="-178.56982930581927" stroke-width="5" stroke="#e18401" stroke-linecap="round"></line><line x1="86.70318242988493" x2="42.50957661586851" y1="33.23656488016432" y2="77.43017069418075" stroke-width="5" stroke="#e18401" stroke-linecap="round"></line><line x1="342.7031824298849" x2="298.5095766158685" y1="33.23656488016432" y2="77.43017069418075" stroke-width="5" stroke="#e18401" stroke-linecap="round"></line><line x1="598.7031824298849" x2="554.5095766158685" y1="33.23656488016432" y2="77.43017069418075" stroke-width="5" stroke="#e18401" stroke-linecap="round"></line>
  <animateTransform attributeName="transform" type="translate" values="0 0;-256 256" keyTimes="0;1" repeatCount="indefinite" dur="5s"></animateTransform>
</g><g transform="translate(-23.8078 23.8078)">
  <line x1="119.6352800476592" x2="51.27363527371346" y1="165.12304942550065" y2="233.48469419944638" stroke-width="5" stroke="#a88d03" stroke-linecap="round"></line><line x1="119.6352800476592" x2="51.27363527371346" y1="-346.87695057449935" y2="-278.5153058005536" stroke-width="5" stroke="#a88d03" stroke-linecap="round"></line><line x1="375.6352800476592" x2="307.27363527371347" y1="-346.87695057449935" y2="-278.5153058005536" stroke-width="5" stroke="#a88d03" stroke-linecap="round"></line><line x1="631.6352800476592" x2="563.2736352737135" y1="-346.87695057449935" y2="-278.5153058005536" stroke-width="5" stroke="#a88d03" stroke-linecap="round"></line><line x1="119.6352800476592" x2="51.27363527371346" y1="-90.87695057449935" y2="-22.51530580055362" stroke-width="5" stroke="#a88d03" stroke-linecap="round"></line><line x1="375.6352800476592" x2="307.27363527371347" y1="-90.87695057449935" y2="-22.51530580055362" stroke-width="5" stroke="#a88d03" stroke-linecap="round"></line><line x1="631.6352800476592" x2="563.2736352737135" y1="-90.87695057449935" y2="-22.51530580055362" stroke-width="5" stroke="#a88d03" stroke-linecap="round"></line><line x1="119.6352800476592" x2="51.27363527371346" y1="165.12304942550065" y2="233.48469419944638" stroke-width="5" stroke="#a88d03" stroke-linecap="round"></line><line x1="375.6352800476592" x2="307.27363527371347" y1="165.12304942550065" y2="233.48469419944638" stroke-width="5" stroke="#a88d03" stroke-linecap="round"></line><line x1="631.6352800476592" x2="563.2736352737135" y1="165.12304942550065" y2="233.48469419944638" stroke-width="5" stroke="#a88d03" stroke-linecap="round"></line><line x1="185.1909945387397" x2="101.81649435011332" y1="173.01833917645408" y2="256.3928393650805" stroke-width="5" stroke="#a88d03" stroke-linecap="round"></line><line x1="185.1909945387397" x2="101.81649435011332" y1="-338.9816608235459" y2="-255.60716063491952" stroke-width="5" stroke="#a88d03" stroke-linecap="round"></line><line x1="441.1909945387397" x2="357.8164943501133" y1="-338.9816608235459" y2="-255.60716063491952" stroke-width="5" stroke="#a88d03" stroke-linecap="round"></line><line x1="697.1909945387397" x2="613.8164943501133" y1="-338.9816608235459" y2="-255.60716063491952" stroke-width="5" stroke="#a88d03" stroke-linecap="round"></line><line x1="185.1909945387397" x2="101.81649435011332" y1="-82.98166082354592" y2="0.39283936508047645" stroke-width="5" stroke="#a88d03" stroke-linecap="round"></line><line x1="441.1909945387397" x2="357.8164943501133" y1="-82.98166082354592" y2="0.39283936508047645" stroke-width="5" stroke="#a88d03" stroke-linecap="round"></line><line x1="697.1909945387397" x2="613.8164943501133" y1="-82.98166082354592" y2="0.39283936508047645" stroke-width="5" stroke="#a88d03" stroke-linecap="round"></line><line x1="185.1909945387397" x2="101.81649435011332" y1="173.01833917645408" y2="256.3928393650805" stroke-width="5" stroke="#a88d03" stroke-linecap="round"></line><line x1="441.1909945387397" x2="357.8164943501133" y1="173.01833917645408" y2="256.3928393650805" stroke-width="5" stroke="#a88d03" stroke-linecap="round"></line><line x1="697.1909945387397" x2="613.8164943501133" y1="173.01833917645408" y2="256.3928393650805" stroke-width="5" stroke="#a88d03" stroke-linecap="round"></line><line x1="271.23475842000244" x2="175.73108762932128" y1="81.8414412673527" y2="177.34511205803386" stroke-width="5" stroke="#a88d03" stroke-linecap="round"></line><line x1="271.23475842000244" x2="175.73108762932128" y1="-430.1585587326473" y2="-334.65488794196614" stroke-width="5" stroke="#a88d03" stroke-linecap="round"></line><line x1="527.2347584200024" x2="431.7310876293213" y1="-430.1585587326473" y2="-334.65488794196614" stroke-width="5" stroke="#a88d03" stroke-linecap="round"></line><line x1="783.2347584200024" x2="687.7310876293213" y1="-430.1585587326473" y2="-334.65488794196614" stroke-width="5" stroke="#a88d03" stroke-linecap="round"></line><line x1="271.23475842000244" x2="175.73108762932128" y1="-174.1585587326473" y2="-78.65488794196614" stroke-width="5" stroke="#a88d03" stroke-linecap="round"></line><line x1="527.2347584200024" x2="431.7310876293213" y1="-174.1585587326473" y2="-78.65488794196614" stroke-width="5" stroke="#a88d03" stroke-linecap="round"></line><line x1="783.2347584200024" x2="687.7310876293213" y1="-174.1585587326473" y2="-78.65488794196614" stroke-width="5" stroke="#a88d03" stroke-linecap="round"></line><line x1="271.23475842000244" x2="175.73108762932128" y1="81.8414412673527" y2="177.34511205803386" stroke-width="5" stroke="#a88d03" stroke-linecap="round"></line><line x1="527.2347584200024" x2="431.7310876293213" y1="81.8414412673527" y2="177.34511205803386" stroke-width="5" stroke="#a88d03" stroke-linecap="round"></line><line x1="783.2347584200024" x2="687.7310876293213" y1="81.8414412673527" y2="177.34511205803386" stroke-width="5" stroke="#a88d03" stroke-linecap="round"></line><line x1="15.234758420002436" x2="-80.26891237067872" y1="81.8414412673527" y2="177.34511205803386" stroke-width="5" stroke="#a88d03" stroke-linecap="round"></line><line x1="133.95100621305932" x2="58.02271187193279" y1="5.023499235367112" y2="80.95179357649363" stroke-width="5" stroke="#a88d03" stroke-linecap="round"></line><line x1="133.95100621305932" x2="58.02271187193279" y1="-506.9765007646329" y2="-431.0482064235064" stroke-width="5" stroke="#a88d03" stroke-linecap="round"></line><line x1="389.9510062130593" x2="314.0227118719328" y1="-506.9765007646329" y2="-431.0482064235064" stroke-width="5" stroke="#a88d03" stroke-linecap="round"></line><line x1="645.9510062130594" x2="570.0227118719328" y1="-506.9765007646329" y2="-431.0482064235064" stroke-width="5" stroke="#a88d03" stroke-linecap="round"></line><line x1="133.95100621305932" x2="58.02271187193279" y1="-250.97650076463287" y2="-175.04820642350637" stroke-width="5" stroke="#a88d03" stroke-linecap="round"></line><line x1="389.9510062130593" x2="314.0227118719328" y1="-250.97650076463287" y2="-175.04820642350637" stroke-width="5" stroke="#a88d03" stroke-linecap="round"></line><line x1="645.9510062130594" x2="570.0227118719328" y1="-250.97650076463287" y2="-175.04820642350637" stroke-width="5" stroke="#a88d03" stroke-linecap="round"></line><line x1="133.95100621305932" x2="58.02271187193279" y1="5.023499235367112" y2="80.95179357649363" stroke-width="5" stroke="#a88d03" stroke-linecap="round"></line><line x1="389.9510062130593" x2="314.0227118719328" y1="5.023499235367112" y2="80.95179357649363" stroke-width="5" stroke="#a88d03" stroke-linecap="round"></line><line x1="645.9510062130594" x2="570.0227118719328" y1="5.023499235367112" y2="80.95179357649363" stroke-width="5" stroke="#a88d03" stroke-linecap="round"></line><line x1="234.64071648244962" x2="186.89321732751765" y1="204.81855710657572" y2="252.5660562615077" stroke-width="5" stroke="#a88d03" stroke-linecap="round"></line><line x1="234.64071648244962" x2="186.89321732751765" y1="-307.1814428934243" y2="-259.4339437384923" stroke-width="5" stroke="#a88d03" stroke-linecap="round"></line><line x1="490.64071648244965" x2="442.8932173275176" y1="-307.1814428934243" y2="-259.4339437384923" stroke-width="5" stroke="#a88d03" stroke-linecap="round"></line><line x1="746.6407164824496" x2="698.8932173275176" y1="-307.1814428934243" y2="-259.4339437384923" stroke-width="5" stroke="#a88d03" stroke-linecap="round"></line><line x1="234.64071648244962" x2="186.89321732751765" y1="-51.181442893424276" y2="-3.433943738492303" stroke-width="5" stroke="#a88d03" stroke-linecap="round"></line><line x1="490.64071648244965" x2="442.8932173275176" y1="-51.181442893424276" y2="-3.433943738492303" stroke-width="5" stroke="#a88d03" stroke-linecap="round"></line><line x1="746.6407164824496" x2="698.8932173275176" y1="-51.181442893424276" y2="-3.433943738492303" stroke-width="5" stroke="#a88d03" stroke-linecap="round"></line><line x1="234.64071648244962" x2="186.89321732751765" y1="204.81855710657572" y2="252.5660562615077" stroke-width="5" stroke="#a88d03" stroke-linecap="round"></line><line x1="490.64071648244965" x2="442.8932173275176" y1="204.81855710657572" y2="252.5660562615077" stroke-width="5" stroke="#a88d03" stroke-linecap="round"></line><line x1="746.6407164824496" x2="698.8932173275176" y1="204.81855710657572" y2="252.5660562615077" stroke-width="5" stroke="#a88d03" stroke-linecap="round"></line>
  <animateTransform attributeName="transform" type="translate" values="0 0;-256 256" keyTimes="0;1" repeatCount="indefinite" dur="2.5s"></animateTransform>
</g><g transform="translate(-163.712 163.712)">
  <line x1="41.29048518813165" x2="33.49975223680598" y1="193.05337557046064" y2="200.8441085217863" stroke-width="5" stroke="#e18401" stroke-linecap="round"></line><line x1="41.29048518813165" x2="33.49975223680598" y1="-318.9466244295394" y2="-311.1558914782137" stroke-width="5" stroke="#e18401" stroke-linecap="round"></line><line x1="297.29048518813164" x2="289.499752236806" y1="-318.9466244295394" y2="-311.1558914782137" stroke-width="5" stroke="#e18401" stroke-linecap="round"></line><line x1="553.2904851881317" x2="545.499752236806" y1="-318.9466244295394" y2="-311.1558914782137" stroke-width="5" stroke="#e18401" stroke-linecap="round"></line><line x1="41.29048518813165" x2="33.49975223680598" y1="-62.946624429539355" y2="-55.155891478213704" stroke-width="5" stroke="#e18401" stroke-linecap="round"></line><line x1="297.29048518813164" x2="289.499752236806" y1="-62.946624429539355" y2="-55.155891478213704" stroke-width="5" stroke="#e18401" stroke-linecap="round"></line><line x1="553.2904851881317" x2="545.499752236806" y1="-62.946624429539355" y2="-55.155891478213704" stroke-width="5" stroke="#e18401" stroke-linecap="round"></line><line x1="41.29048518813165" x2="33.49975223680598" y1="193.05337557046064" y2="200.8441085217863" stroke-width="5" stroke="#e18401" stroke-linecap="round"></line><line x1="297.29048518813164" x2="289.499752236806" y1="193.05337557046064" y2="200.8441085217863" stroke-width="5" stroke="#e18401" stroke-linecap="round"></line><line x1="553.2904851881317" x2="545.499752236806" y1="193.05337557046064" y2="200.8441085217863" stroke-width="5" stroke="#e18401" stroke-linecap="round"></line><line x1="161.94381909911561" x2="105.60356633581354" y1="73.33900793286357" y2="129.6792606961656" stroke-width="5" stroke="#bbb900" stroke-linecap="round"></line><line x1="161.94381909911561" x2="105.60356633581354" y1="-438.6609920671364" y2="-382.3207393038344" stroke-width="5" stroke="#bbb900" stroke-linecap="round"></line><line x1="417.9438190991156" x2="361.6035663358135" y1="-438.6609920671364" y2="-382.3207393038344" stroke-width="5" stroke="#bbb900" stroke-linecap="round"></line><line x1="673.9438190991157" x2="617.6035663358135" y1="-438.6609920671364" y2="-382.3207393038344" stroke-width="5" stroke="#bbb900" stroke-linecap="round"></line><line x1="161.94381909911561" x2="105.60356633581354" y1="-182.66099206713642" y2="-126.32073930383439" stroke-width="5" stroke="#bbb900" stroke-linecap="round"></line><line x1="417.9438190991156" x2="361.6035663358135" y1="-182.66099206713642" y2="-126.32073930383439" stroke-width="5" stroke="#bbb900" stroke-linecap="round"></line><line x1="673.9438190991157" x2="617.6035663358135" y1="-182.66099206713642" y2="-126.32073930383439" stroke-width="5" stroke="#bbb900" stroke-linecap="round"></line><line x1="161.94381909911561" x2="105.60356633581354" y1="73.33900793286357" y2="129.6792606961656" stroke-width="5" stroke="#bbb900" stroke-linecap="round"></line><line x1="417.9438190991156" x2="361.6035663358135" y1="73.33900793286357" y2="129.6792606961656" stroke-width="5" stroke="#bbb900" stroke-linecap="round"></line><line x1="673.9438190991157" x2="617.6035663358135" y1="73.33900793286357" y2="129.6792606961656" stroke-width="5" stroke="#bbb900" stroke-linecap="round"></line><line x1="165.82868620129102" x2="76.88529678706537" y1="34.27510450442665" y2="123.21849391865229" stroke-width="5" stroke="#a88d03" stroke-linecap="round"></line><line x1="165.82868620129102" x2="76.88529678706537" y1="-477.7248954955734" y2="-388.78150608134774" stroke-width="5" stroke="#a88d03" stroke-linecap="round"></line><line x1="421.828686201291" x2="332.8852967870654" y1="-477.7248954955734" y2="-388.78150608134774" stroke-width="5" stroke="#a88d03" stroke-linecap="round"></line><line x1="677.828686201291" x2="588.8852967870654" y1="-477.7248954955734" y2="-388.78150608134774" stroke-width="5" stroke="#a88d03" stroke-linecap="round"></line><line x1="165.82868620129102" x2="76.88529678706537" y1="-221.72489549557335" y2="-132.78150608134771" stroke-width="5" stroke="#a88d03" stroke-linecap="round"></line><line x1="421.828686201291" x2="332.8852967870654" y1="-221.72489549557335" y2="-132.78150608134771" stroke-width="5" stroke="#a88d03" stroke-linecap="round"></line><line x1="677.828686201291" x2="588.8852967870654" y1="-221.72489549557335" y2="-132.78150608134771" stroke-width="5" stroke="#a88d03" stroke-linecap="round"></line><line x1="165.82868620129102" x2="76.88529678706537" y1="34.27510450442665" y2="123.21849391865229" stroke-width="5" stroke="#a88d03" stroke-linecap="round"></line><line x1="421.828686201291" x2="332.8852967870654" y1="34.27510450442665" y2="123.21849391865229" stroke-width="5" stroke="#a88d03" stroke-linecap="round"></line><line x1="677.828686201291" x2="588.8852967870654" y1="34.27510450442665" y2="123.21849391865229" stroke-width="5" stroke="#a88d03" stroke-linecap="round"></line><line x1="224.30199484672244" x2="214.49543615299694" y1="49.72331680055363" y2="59.52987549427914" stroke-width="5" stroke="#bbb900" stroke-linecap="round"></line><line x1="224.30199484672244" x2="214.49543615299694" y1="-462.2766831994464" y2="-452.47012450572083" stroke-width="5" stroke="#bbb900" stroke-linecap="round"></line><line x1="480.30199484672244" x2="470.49543615299694" y1="-462.2766831994464" y2="-452.47012450572083" stroke-width="5" stroke="#bbb900" stroke-linecap="round"></line><line x1="736.3019948467224" x2="726.495436152997" y1="-462.2766831994464" y2="-452.47012450572083" stroke-width="5" stroke="#bbb900" stroke-linecap="round"></line><line x1="224.30199484672244" x2="214.49543615299694" y1="-206.27668319944638" y2="-196.47012450572086" stroke-width="5" stroke="#bbb900" stroke-linecap="round"></line><line x1="480.30199484672244" x2="470.49543615299694" y1="-206.27668319944638" y2="-196.47012450572086" stroke-width="5" stroke="#bbb900" stroke-linecap="round"></line><line x1="736.3019948467224" x2="726.495436152997" y1="-206.27668319944638" y2="-196.47012450572086" stroke-width="5" stroke="#bbb900" stroke-linecap="round"></line><line x1="224.30199484672244" x2="214.49543615299694" y1="49.72331680055363" y2="59.52987549427914" stroke-width="5" stroke="#bbb900" stroke-linecap="round"></line><line x1="480.30199484672244" x2="470.49543615299694" y1="49.72331680055363" y2="59.52987549427914" stroke-width="5" stroke="#bbb900" stroke-linecap="round"></line><line x1="736.3019948467224" x2="726.495436152997" y1="49.72331680055363" y2="59.52987549427914" stroke-width="5" stroke="#bbb900" stroke-linecap="round"></line><line x1="260.590327485336" x2="172.52548395099666" y1="129.95417620122828" y2="218.0190197355676" stroke-width="5" stroke="#bbb900" stroke-linecap="round"></line><line x1="260.590327485336" x2="172.52548395099666" y1="-382.0458237987717" y2="-293.9809802644324" stroke-width="5" stroke="#bbb900" stroke-linecap="round"></line><line x1="516.590327485336" x2="428.52548395099666" y1="-382.0458237987717" y2="-293.9809802644324" stroke-width="5" stroke="#bbb900" stroke-linecap="round"></line><line x1="772.590327485336" x2="684.5254839509967" y1="-382.0458237987717" y2="-293.9809802644324" stroke-width="5" stroke="#bbb900" stroke-linecap="round"></line><line x1="260.590327485336" x2="172.52548395099666" y1="-126.04582379877172" y2="-37.98098026443239" stroke-width="5" stroke="#bbb900" stroke-linecap="round"></line><line x1="516.590327485336" x2="428.52548395099666" y1="-126.04582379877172" y2="-37.98098026443239" stroke-width="5" stroke="#bbb900" stroke-linecap="round"></line><line x1="772.590327485336" x2="684.5254839509967" y1="-126.04582379877172" y2="-37.98098026443239" stroke-width="5" stroke="#bbb900" stroke-linecap="round"></line><line x1="260.590327485336" x2="172.52548395099666" y1="129.95417620122828" y2="218.0190197355676" stroke-width="5" stroke="#bbb900" stroke-linecap="round"></line><line x1="516.590327485336" x2="428.52548395099666" y1="129.95417620122828" y2="218.0190197355676" stroke-width="5" stroke="#bbb900" stroke-linecap="round"></line><line x1="772.590327485336" x2="684.5254839509967" y1="129.95417620122828" y2="218.0190197355676" stroke-width="5" stroke="#bbb900" stroke-linecap="round"></line><line x1="4.59032748533599" x2="-83.47451604900334" y1="129.95417620122828" y2="218.0190197355676" stroke-width="5" stroke="#bbb900" stroke-linecap="round"></line>
  <animateTransform attributeName="transform" type="translate" values="0 0;-256 256" keyTimes="0;1" repeatCount="indefinite" dur="1.6666666666666665s"></animateTransform>
</g></g>
  </pattern>
</defs>
<rect x="0" y="0" width="1920" height="1080" fill="url(#pid-0.012972200683235275)"></rect>
</svg>